HIERARCHY
ROOT hips
{
  OFFSET 0 10.6860622 2.3727825e-15
  CHANNELS 6 Xposition Yposition Zposition Yrotation Xrotation Zrotation
  JOINT leftUpperLeg
  {
    OFFSET 0.6642549969 -0.9402397400000004 0
    CHANNELS 3 Yrotation Xrotation Zrotation
    JOINT leftLowerLeg
    {
      OFFSET 0 -3.997221335632195 0
      CHANNELS 3 Yrotation Xrotation Zrotation
      JOINT leftFoot
      {
        OFFSET -0.13777839790000004 -4.6145792000000005 -0.22186036399999998
        CHANNELS 3 Yrotation Xrotation Zrotation
        JOINT leftToes
        {
          OFFSET -0.03777410834999995 -0.9130806927000008 0.85230013
          CHANNELS 3 Yrotation Xrotation Zrotation
          End Site
          {
            OFFSET -0.03777410834999995 -0.9130806927000008 0.85230013
          }
        }
      }
    }
  }
  JOINT rightUpperLeg
  {
    OFFSET -0.6642778626 -0.9402397400000004 0
    CHANNELS 3 Yrotation Xrotation Zrotation
    JOINT rightLowerLeg
    {
      OFFSET 0 -3.997221452859387 0
      CHANNELS 3 Yrotation Xrotation Zrotation
      JOINT rightFoot
      {
        OFFSET 0.1377926176 -4.6145792000000005 -0.22185782299999995
        CHANNELS 3 Yrotation Xrotation Zrotation
        JOINT rightToes
        {
          OFFSET 0.037780746850000047 -0.9130806927000008 0.85230167
          CHANNELS 3 Yrotation Xrotation Zrotation
          End Site
          {
            OFFSET 0.037780746850000047 -0.9130806927000008 0.85230167
          }
        }
      }
    }
  }
  JOINT spine
  {
    OFFSET 0 0.13988381660000015 0
    CHANNELS 3 Yrotation Xrotation Zrotation
    JOINT chest
    {
      OFFSET 0 0.6191039003973773 0
      CHANNELS 3 Yrotation Xrotation Zrotation
      JOINT upperChest
      {
        OFFSET 0 0.9855186130586943 0
        CHANNELS 3 Yrotation Xrotation Zrotation
        JOINT leftShoulder
        {
          OFFSET 0.1807663869 1.5087829790000005 0
          CHANNELS 3 Yrotation Xrotation Zrotation
          JOINT leftUpperArm
          {
            OFFSET 0.5985063006419806 0 0
            CHANNELS 3 Yrotation Xrotation Zrotation
            JOINT leftLowerArm
            {
              OFFSET 2.2993332369501065 0 0
              CHANNELS 3 Yrotation Xrotation Zrotation
              JOINT leftHand
              {
                OFFSET 2.395047042602395 0 0
                CHANNELS 3 Yrotation Xrotation Zrotation
                JOINT leftIndexProximal
                {
                  OFFSET 0.5766295810000004 0.04556643899499946 0.17265095988184
                  CHANNELS 3 Yrotation Xrotation Zrotation
                  JOINT leftIndexIntermediate
                  {
                    OFFSET 0.2957229000000008 -0.019352197700001517 -0.007932640616999987
                    CHANNELS 3 Yrotation Xrotation Zrotation
                    JOINT leftIndexDistal
                    {
                      OFFSET 0.19008243099999922 -0.012484908149998475 -0.002786250786000012
                      CHANNELS 3 Yrotation Xrotation Zrotation
                      End Site
                      {
                        OFFSET 0.19008243099999922 -0.012484908149998475 -0.002786250786000012
                      }
                    }
                  }
                }
                JOINT leftMiddleProximal
                {
                  OFFSET 0.5834975091000001 0.0524350405149987 0.02204081888183999
                  CHANNELS 3 Yrotation Xrotation Zrotation
                  JOINT leftMiddleIntermediate
                  {
                    OFFSET 0.33880573540000003 -0.019871473270000717 -0.00000971183179999946
                    CHANNELS 3 Yrotation Xrotation Zrotation
                    JOINT leftMiddleDistal
                    {
                      OFFSET 0.20676022730000088 -0.012221336379999448 0.0001471936708000235
                      CHANNELS 3 Yrotation Xrotation Zrotation
                      End Site
                      {
                        OFFSET 0.20676022730000088 -0.012221336379999448 0.0001471936708000235
                      }
                    }
                  }
                }
                JOINT leftLittleProximal
                {
                  OFFSET 0.5344154683999995 -0.012880921405001189 -0.24414037221816004
                  CHANNELS 3 Yrotation Xrotation Zrotation
                  JOINT leftLittleIntermediate
                  {
                    OFFSET 0.21758961730000093 -0.011650919939999227 0.011893592810000034
                    CHANNELS 3 Yrotation Xrotation Zrotation
                    JOINT leftLittleDistal
                    {
                      OFFSET 0.1475273964999999 -0.008152365682999818 0.006001092492999946
                      CHANNELS 3 Yrotation Xrotation Zrotation
                      End Site
                      {
                        OFFSET 0.1475273964999999 -0.008152365682999818 0.006001092492999946
                      }
                    }
                  }
                }
                JOINT leftRingProximal
                {
                  OFFSET 0.5799399463000003 0.026911854694997794 -0.12150566991816003
                  CHANNELS 3 Yrotation Xrotation Zrotation
                  JOINT leftRingIntermediate
                  {
                    OFFSET 0.26167887460000006 -0.013480186499999602 0.010996293000000053
                    CHANNELS 3 Yrotation Xrotation Zrotation
                    JOINT leftRingDistal
                    {
                      OFFSET 0.17667108799999987 -0.008990287899999228 0.0055541023999999065
                      CHANNELS 3 Yrotation Xrotation Zrotation
                      End Site
                      {
                        OFFSET 0.17667108799999987 -0.008990287899999228 0.0055541023999999065
                      }
                    }
                  }
                }
                JOINT leftThumbProximal
                {
                  OFFSET 0.11018806699999972 -0.09448718900500053 0.17047963138184
                  CHANNELS 3 Yrotation Xrotation Zrotation
                  JOINT leftThumbIntermediate
                  {
                    OFFSET 0.31062601459999983 -0.08126270900000132 0.15443142000000007
                    CHANNELS 3 Yrotation Xrotation Zrotation
                    JOINT leftThumbDistal
                    {
                      OFFSET 0.21627175790000086 -0.08833193599999878 0.018771167799999988
                      CHANNELS 3 Yrotation Xrotation Zrotation
                      End Site
                      {
                        OFFSET 0.21627175790000086 -0.08833193599999878 0.018771167799999988
                      }
                    }
                  }
                }
              }
            }
          }
        }
        JOINT neck
        {
          OFFSET 0 1.5463305265074576 0
          CHANNELS 3 Yrotation Xrotation Zrotation
          JOINT head
          {
            OFFSET 0 0.8456443600000344 0
            CHANNELS 3 Yrotation Xrotation Zrotation
            JOINT leftEye
            {
              OFFSET 0.30408573140000006 0.5104519199999995 0.1276382305
              CHANNELS 3 Yrotation Xrotation Zrotation
              End Site
              {
                OFFSET 0.30408573140000006 0.5104519199999995 0.1276382305
              }
            }
            JOINT rightEye
            {
              OFFSET -0.30409491089999996 0.5104519199999995 0.1276379445
              CHANNELS 3 Yrotation Xrotation Zrotation
              End Site
              {
                OFFSET -0.30409491089999996 0.5104519199999995 0.1276379445
              }
            }
            JOINT jaw
            {
              OFFSET -3.155239131000001e-7 -0.11984121820000082 0.60178107
              CHANNELS 3 Yrotation Xrotation Zrotation
              End Site
              {
                OFFSET -3.155239131000001e-7 -0.11984121820000082 0.60178107
              }
            }
          }
        }
        JOINT rightShoulder
        {
          OFFSET -0.1807303465 1.5087829790000005 0
          CHANNELS 3 Yrotation Xrotation Zrotation
          JOINT rightUpperArm
          {
            OFFSET -0.5985063796536958 0 0
            CHANNELS 3 Yrotation Xrotation Zrotation
            JOINT rightLowerArm
            {
              OFFSET -2.2993322059002854 0 0
              CHANNELS 3 Yrotation Xrotation Zrotation
              JOINT rightHand
              {
                OFFSET -2.395045314457259 0 0
                CHANNELS 3 Yrotation Xrotation Zrotation
                JOINT rightIndexProximal
                {
                  OFFSET -0.5764487688300002 0.0441371204405987 0.17361932004999997
                  CHANNELS 3 Yrotation Xrotation Zrotation
                  JOINT rightIndexIntermediate
                  {
                    OFFSET -0.29573011380000047 -0.01934826376999843 -0.007698921482999974
                    CHANNELS 3 Yrotation Xrotation Zrotation
                    JOINT rightIndexDistal
                    {
                      OFFSET -0.19008373999999884 -0.012503266380000655 -0.0026365778999999897
                      CHANNELS 3 Yrotation Xrotation Zrotation
                      End Site
                      {
                        OFFSET -0.19008373999999884 -0.012503266380000655 -0.0026365778999999897
                      }
                    }
                  }
                }
                JOINT rightMiddleProximal
                {
                  OFFSET -0.5834852037300005 0.05211639405060153 0.02307162440000001
                  CHANNELS 3 Yrotation Xrotation Zrotation
                  JOINT rightMiddleIntermediate
                  {
                    OFFSET -0.33880114510000003 -0.019952774050000954 0.0002455003561999819
                    CHANNELS 3 Yrotation Xrotation Zrotation
                    JOINT rightMiddleDistal
                    {
                      OFFSET -0.20675694929999955 -0.012273788999999091 0.00030209124000002766
                      CHANNELS 3 Yrotation Xrotation Zrotation
                      End Site
                      {
                        OFFSET -0.20675694929999955 -0.012273788999999091 0.00030209124000002766
                      }
                    }
                  }
                }
                JOINT rightLittleProximal
                {
                  OFFSET -0.5346811737299992 -0.011214256288399227 -0.24363941305000003
                  CHANNELS 3 Yrotation Xrotation Zrotation
                  JOINT rightLittleIntermediate
                  {
                    OFFSET -0.21757715980000092 -0.011771559690000988 0.01201554387
                    CHANNELS 3 Yrotation Xrotation Zrotation
                    JOINT rightLittleDistal
                    {
                      OFFSET -0.1475201849000004 -0.00822055339600003 0.006082065407000015
                      CHANNELS 3 Yrotation Xrotation Zrotation
                      End Site
                      {
                        OFFSET -0.1475201849000004 -0.00822055339600003 0.006082065407000015
                      }
                    }
                  }
                }
                JOINT rightRingProximal
                {
                  OFFSET -0.5800810755299999 0.027657985680600072 -0.12066365025000003
                  CHANNELS 3 Yrotation Xrotation Zrotation
                  JOINT rightRingIntermediate
                  {
                    OFFSET -0.26166445029999974 -0.013623118409999302 0.011164098990000045
                    CHANNELS 3 Yrotation Xrotation Zrotation
                    JOINT rightRingDistal
                    {
                      OFFSET -0.17666387530000027 -0.009072900100000503 0.005668185599999959
                      CHANNELS 3 Yrotation Xrotation Zrotation
                      End Site
                      {
                        OFFSET -0.17666387530000027 -0.009072900100000503 0.005668185599999959
                      }
                    }
                  }
                }
                JOINT rightThumbProximal
                {
                  OFFSET -0.10997596379000074 -0.09577489355940072 0.16989765924999997
                  CHANNELS 3 Yrotation Xrotation Zrotation
                  JOINT rightThumbIntermediate
                  {
                    OFFSET -0.31036620999999986 -0.08229339117999834 0.15440884469999996
                    CHANNELS 3 Yrotation Xrotation Zrotation
                    JOINT rightThumbDistal
                    {
                      OFFSET -0.21631306399999906 -0.08825326400000111 0.018656797720000014
                      CHANNELS 3 Yrotation Xrotation Zrotation
                      End Site
                      {
                        OFFSET -0.21631306399999906 -0.08825326400000111 0.018656797720000014
                      }
                    }
                  }
                }
              }
            }
          }
        }
      }
    }
  }
}
MOTION
Frames: 6
Frame Time: 0.03333333333333333
-5.368353224298846 -7.884740247961068 -1.785819369479149 180 -13.270004617176344 180 173.06123519578406 -55.9671729986872 -158.33266969349566 -0.6244594969741671 7.422638100910147 14.984677192086739 -8.355955182674014 27.83818932446115 -0.9532095068754539 0 0 0 -175.7837437246667 -45.36847337325631 158.8992548638312 4.8177063492022105 33.93769657125448 -13.64156285823337 1.9735717332541294 17.882326456393944 -6.341761058921817 0 0 0 -0.032538396152915754 28.922325531216252 -0.040008234797700576 -0.979848528839367 43.90958772573018 -0.9433717298858637 0 0 0 -1.5212774951028927 -3.622296227011328 15.363738601686997 1.941363334231787 21.17438316972128 -62.624805509581336 -42.87473754606385 31.46085909507469 -17.020090261571184 22.021434273167852 38.87919477659815 -8.03700714549259 0 0 0 0 0 0 0 0 0 0 0 0 0 0 0 0 0 0 0 0 0 0 0 0 0 0 0 0 0 0 0 0 0 0 0 0 0 0 0 0 0 0 0 0 0 0 27.32558244152031 0 0 17.773552340390495 0 0 0 0 0 0 0 0 0 0 1.6296228226315812 -3.4525246748269542 -15.834245539437799 -2.2925018325877917 21.499716472693127 63.20179874853698 41.87999526799446 31.26454170615253 18.249399239881495 -22.54256152266073 38.9127275728141 7.564105565744858 0 0 0 0 0 0 0 0 0 0 0 0 0 0 0 0 0 0 0 0 0 0 0 0 0 0 0 0 0 0 0 0 0 0 0 0 0 0 0 0 0 0 0 0 0
-5.368353224298846 -7.885843474392272 -1.78110962190227 180 -13.559601209335485 180 173.23876326941385 -55.776782594802874 -158.4185760796745 -0.6244594969741671 7.422638100910147 14.984677192086739 -8.239447593457902 27.899760158832642 -0.9256432478981474 0 0 0 -175.93784350485075 -45.14693236781832 159.0193367796893 4.8177063492022105 33.93769657125448 -13.64156285823337 1.8749329845150764 17.910993357044262 -6.32250525046003 0 0 0 -0.032538396152915754 28.922325531216252 -0.040008234797700576 -0.9671966021495431 43.385855824318064 -0.9254146107904169 0 0 0 -1.320540034196055 -3.497312958501249 14.986261085731046 1.936758202816878 21.1307855658494 -62.35303566861901 -42.45416497535752 31.56755295144016 -16.73430530925263 21.92495401213206 39.013157485761226 -7.9815490707200265 0 0 0 0 0 0 0 0 0 0 0 0 0 0 0 0 0 0 0 0 0 0 0 0 0 0 0 0 0 0 0 0 0 0 0 0 0 0 0 0 0 0 0 0 0 0 27.125735466667336 0 0 17.548757164610386 0 0 0 0 0 0 0 0 0 0 1.4259683274082602 -3.3332549389839277 -15.444444877677919 -2.279566987074777 21.446592160052134 62.91416122142011 41.487781144382105 31.378008308923466 17.931210841149984 -22.433341606834514 39.04591827795134 7.52008345371716 0 0 0 0 0 0 0 0 0 0 0 0 0 0 0 0 0 0 0 0 0 0 0 0 0 0 0 0 0 0 0 0 0 0 0 0 0 0 0 0 0 0 0 0 0
-5.368353224298846 -7.888049927254681 -1.7716898583562408 180 -14.139022693215672 180 173.5898336064577 -55.395491739165195 -158.58608176619728 -0.6244594969741671 7.422638100910147 14.984677192086739 -8.006111832903223 28.02276145553174 -0.870034352879718 0 0 0 -176.2424099068084 -44.70298918892098 159.25568715033054 4.8177063492022105 33.93769657125448 -13.64156285823337 1.6776240472958566 17.968427241894066 -6.284136142339917 0 0 0 -0.032538396152915754 28.922325531216252 -0.040008234797700576 -0.9428430102142139 42.33690618786032 -0.8903721635659172 0 0 0 -0.9212490292083603 -3.2431525711488547 14.232037800355515 1.9268787048113665 21.043621456262027 -61.80951523114096 -41.60910965871905 31.775711957762123 -16.158602182455457 21.731906786305313 39.28134484718266 -7.871171176901844 0 0 0 0 0 0 0 0 0 0 0 0 0 0 0 0 0 0 0 0 0 0 0 0 0 0 0 0 0 0 0 0 0 0 0 0 0 0 0 0 0 0 0 0 0 0 26.725940412739448 0 0 17.09903689042626 0 0 0 0 0 0 0 0 0 0 1.0207754407744782 -3.090330392318498 -14.665466176726941 -2.2528368841624076 21.34048399193539 62.3389086353698 40.69916482602473 31.599479852861496 17.29052319496233 -22.21463162123715 39.312557896218344 7.432756197390874 0 0 0 0 0 0 0 0 0 0 0 0 0 0 0 0 0 0 0 0 0 0 0 0 0 0 0 0 0 0 0 0 0 0 0 0 0 0 0 0 0 0 0 0 0
-5.368353224298846 -7.889153019489748 -1.766979976583226 -179.99999999869422 -14.428848902193684 -179.99999950032537 173.7634150353154 -55.20458004429647 -158.66771223186907 -0.6244594969741671 7.422638100910147 14.984677192086739 -7.889285176950097 28.084193835019487 -0.8419914592651414 0 0 0 -176.39290190223215 -44.48063008577942 159.37197941111557 4.8177063492022105 33.93769657125448 -13.64156285823337 1.5789553630422661 17.997194273017453 -6.265024564836035 0 0 0 -0.032538396152915754 28.922325531216252 -0.040008234797700576 -0.9311253265233468 41.81175055199106 -0.873271021543979 0 0 0 -0.7227334311579673 -3.1139985969882447 13.855339322688621 1.9216066616934566 21.00005853997425 -61.53777757055368 -41.18466951253137 31.877129856569045 -15.868735617170177 21.6353407684313 39.41557197596097 -7.816252716138261 0 0 0 0 0 0 0 0 0 0 0 0 0 0 0 0 0 0 0 0 0 0 0 0 0 0 0 0 0 0 0 0 0 0 0 0 0 0 0 0 0 0 0 0 0 0 26.526008834313714 0 0 16.874124827555963 0 0 0 0 0 0 0 0 0 0 0.819280319810465 -2.966700325390604 -14.276339543320294 -2.239042754216192 21.287507274049496 62.051308176669686 40.30283251361205 31.707452590652796 16.96807850223954 -22.105143957795992 39.44599155191104 7.38945414548295 0 0 0 0 0 0 0 0 0 0 0 0 0 0 0 0 0 0 0 0 0 0 0 0 0 0 0 0 0 0 0 0 0 0 0 0 0 0 0 0 0 0 0 0 0
-5.368353224298846 -7.890256111724815 -1.7622700948102112 180 -14.718673236217002 -179.99999900000003 173.93569447853267 -55.01353113792055 -158.7479445132887 -0.6244594969741671 7.422638100910147 14.984677192086739 -7.772358353242727 28.14557423703604 -0.8137903875363653 0 0 0 -176.54219290931874 -44.25805187821685 159.48701481624474 4.8177063492022105 33.93769657125448 -13.64156285823337 1.4802807898327799 18.025991136655453 -6.245961146808404 0 0 0 -0.032538396152915754 28.922325531216252 -0.040008234797700576 -0.9197110606507565 41.286593349422944 -0.8564512278696396 0 0 0 -0.525096312821952 -2.9835451450946926 13.479136565836416 1.9161149325006102 20.95652113369865 -61.26611330635814 -40.75917012219593 31.976718974217768 -15.577672859823224 21.538755408302656 39.549872023969286 -7.761521937600239 0 0 0 0 0 0 0 0 0 0 0 0 0 0 0 0 0 0 0 0 0 0 0 0 0 0 0 0 0 0 0 0 0 0 0 0 0 0 0 0 0 0 0 0 0 0 26.32607624466324 0 0 16.6492111305378 0 0 0 0 0 0 0 0 0 0 0.6186526565320695 -2.841707599462893 -13.887692115571113 -2.224968331426271 21.234595432887588 61.76379604147175 39.9053302121438 31.813521635478367 16.644390405446334 -21.99557495781997 39.579490838764116 7.346399256626019 0 0 0 0 0 0 0 0 0 0 0 0 0 0 0 0 0 0 0 0 0 0 0 0 0 0 0 0 0 0 0 0 0 0 0 0 0 0 0 0 0 0 0 0 0
-5.368353224298846 -7.892462564587224 -1.7528503312641819 180 -15.298523030742652 -179.999999 174.27650914980993 -54.6309207582485 -158.9043377999472 -0.6244594969741671 7.422638100910147 14.984677192086739 -7.538184588560671 28.268192604338306 -0.7569104563897021 0 0 0 -176.83731292327425 -43.81214952134939 159.71343198556602 4.8177063492022105 33.93769657125448 -13.64156285823337 1.282902931316542 18.0836870231 -6.207982076312049 0 0 0 -0.032538396152915754 28.922325531216252 -0.040008234797700576 -0.897732327812899 40.235130275239214 -0.8235805533582796 0 0 0 -0.1321883138360179 -2.7185673693955072 12.727657796285607 1.9044771245062828 20.86948794035266 -60.72283186247072 -39.90454970377057 32.17048514749893 -14.991694183343103 21.345484834565433 39.81869554271356 -7.652603998253046 0 0 0 0 0 0 0 0 0 0 0 0 0 0 0 0 0 0 0 0 0 0 0 0 0 0 0 0 0 0 0 0 0 0 0 0 0 0 0 0 0 0 0 0 0 0 25.926145190551992 0 0 16.199279679057184 0 0 0 0 0 0 0 0 0 0 0.21971427165685234 -2.5874594321311384 -13.11123125102476 -2.1959835784256305 21.12892198650048 61.188809102828984 39.10644455727511 32.02001657066733 15.992982880966853 -21.77615592752835 39.84670408502812 7.261019634009697 0 0 0 0 0 0 0 0 0 0 0 0 0 0 0 0 0 0 0 0 0 0 0 0 0 0 0 0 0 0 0 0 0 0 0 0 0 0 0 0 0 0 0 0 0
